<svg width="588" height="667" viewBox="0 0 588 667" fill="none" xmlns="http://www.w3.org/2000/svg">
<path d="M500.725 661.405C495.682 661.405 491.593 657.339 491.593 652.324C491.593 647.308 495.682 643.243 500.725 643.243C505.768 643.243 509.857 647.308 509.857 652.324C509.857 657.323 505.768 661.405 500.725 661.405Z" stroke="#04D361" stroke-width="3" stroke-miterlimit="10" stroke-linecap="round" stroke-linejoin="round"/>
<path d="M494.425 658.888L487.967 665.294" stroke="#04D361" stroke-width="3" stroke-miterlimit="10" stroke-linecap="round" stroke-linejoin="round"/>
<path d="M329.372 2L319.765 11.5541" stroke="#04D361" stroke-width="3" stroke-miterlimit="10" stroke-linecap="round" stroke-linejoin="round"/>
<path d="M329.372 11.5541L319.765 2" stroke="#04D361" stroke-width="3" stroke-miterlimit="10" stroke-linecap="round" stroke-linejoin="round"/>
<path d="M315.617 576.763L306.01 586.317" stroke="#04D361" stroke-width="3" stroke-miterlimit="10" stroke-linecap="round" stroke-linejoin="round"/>
<path d="M315.617 586.317L306.01 576.763" stroke="#04D361" stroke-width="3" stroke-miterlimit="10" stroke-linecap="round" stroke-linejoin="round"/>
<path d="M15.5866 187.274L1.99999 187.274" stroke="#04D361" stroke-width="3" stroke-miterlimit="10" stroke-linecap="round" stroke-linejoin="round"/>
<path d="M8.79484 194.046L8.79485 180.52" stroke="#04D361" stroke-width="3" stroke-miterlimit="10" stroke-linecap="round" stroke-linejoin="round"/>
<path d="M413.022 138.422C408.472 138.422 404.765 134.752 404.765 130.211C404.765 125.686 408.456 122 413.022 122C417.572 122 421.279 125.67 421.279 130.211C421.263 134.752 417.572 138.422 413.022 138.422Z" stroke="#04D361" stroke-width="3" stroke-miterlimit="10" stroke-linecap="round" stroke-linejoin="round"/>
<path d="M577.899 345.169C573.349 345.169 569.642 341.499 569.642 336.958C569.642 332.434 573.333 328.747 577.899 328.747C582.449 328.747 586.156 332.418 586.156 336.958C586.14 341.499 582.449 345.169 577.899 345.169Z" stroke="#04D361" stroke-width="3" stroke-miterlimit="10" stroke-linecap="round" stroke-linejoin="round"/>
<path d="M58.7474 471.906C54.1973 471.906 50.4904 468.236 50.4904 463.695C50.4904 459.17 54.1814 455.484 58.7474 455.484C63.2975 455.484 67.0044 459.155 67.0044 463.695C66.9885 468.236 63.2975 471.906 58.7474 471.906Z" stroke="#04D361" stroke-width="3" stroke-miterlimit="10" stroke-linecap="round" stroke-linejoin="round"/>
<path d="M157.379 23.2467C157.379 24.8891 158.718 26.2205 160.37 26.2205C162.021 26.2205 163.36 24.8891 163.36 23.2467C163.36 21.6044 162.021 20.2729 160.37 20.2729C158.718 20.2729 157.379 21.6044 157.379 23.2467Z" fill="#9871F5"/>
<path d="M157.379 44.0199C157.379 45.6623 158.718 46.9937 160.37 46.9937C162.021 46.9937 163.36 45.6623 163.36 44.0199C163.36 42.3776 162.021 41.0461 160.37 41.0461C158.718 41.0461 157.379 42.3776 157.379 44.0199Z" fill="#9871F5"/>
<path d="M157.379 64.7744C157.379 66.4168 158.718 67.7482 160.37 67.7482C162.021 67.7482 163.36 66.4168 163.36 64.7744C163.36 63.1321 162.021 61.8007 160.37 61.8007C158.718 61.8007 157.379 63.1321 157.379 64.7744Z" fill="#9871F5"/>
<path d="M157.379 85.5447C157.379 87.1871 158.718 88.5185 160.37 88.5185C162.021 88.5185 163.36 87.1871 163.36 85.5447C163.36 83.9023 162.021 82.5709 160.37 82.5709C158.718 82.5709 157.379 83.9023 157.379 85.5447Z" fill="#9871F5"/>
<path d="M157.379 106.301C157.379 107.943 158.718 109.275 160.37 109.275C162.021 109.275 163.36 107.943 163.36 106.301C163.36 104.659 162.021 103.327 160.37 103.327C158.718 103.327 157.379 104.659 157.379 106.301Z" fill="#9871F5"/>
<path d="M157.379 127.071C157.379 128.714 158.718 130.045 160.37 130.045C162.021 130.045 163.36 128.714 163.36 127.071C163.36 125.429 162.021 124.098 160.37 124.098C158.718 124.098 157.379 125.429 157.379 127.071Z" fill="#9871F5"/>
<path d="M136.506 23.247C136.506 24.8894 137.845 26.2208 139.497 26.2208C141.148 26.2208 142.487 24.8894 142.487 23.247C142.487 21.6046 141.148 20.2732 139.497 20.2732C137.845 20.2732 136.506 21.6046 136.506 23.247Z" fill="#9871F5"/>
<path d="M136.506 44.0199C136.506 45.6623 137.845 46.9937 139.497 46.9937C141.148 46.9937 142.487 45.6623 142.487 44.0199C142.487 42.3776 141.148 41.0461 139.497 41.0461C137.845 41.0461 136.506 42.3776 136.506 44.0199Z" fill="#9871F5"/>
<path d="M136.506 64.7744C136.506 66.4168 137.845 67.7482 139.497 67.7482C141.148 67.7482 142.487 66.4168 142.487 64.7744C142.487 63.1321 141.148 61.8007 139.497 61.8007C137.845 61.8007 136.506 63.1321 136.506 64.7744Z" fill="#9871F5"/>
<path d="M136.506 85.5447C136.506 87.1871 137.845 88.5185 139.497 88.5185C141.148 88.5185 142.487 87.1871 142.487 85.5447C142.487 83.9023 141.148 82.5709 139.497 82.5709C137.845 82.5709 136.506 83.9023 136.506 85.5447Z" fill="#9871F5"/>
<path d="M136.506 106.301C136.506 107.943 137.845 109.275 139.497 109.275C141.148 109.275 142.487 107.943 142.487 106.301C142.487 104.659 141.148 103.327 139.497 103.327C137.845 103.327 136.506 104.659 136.506 106.301Z" fill="#9871F5"/>
<path d="M136.506 127.071C136.506 128.714 137.845 130.045 139.497 130.045C141.148 130.045 142.487 128.714 142.487 127.071C142.487 125.429 141.148 124.098 139.497 124.098C137.845 124.098 136.506 125.429 136.506 127.071Z" fill="#9871F5"/>
<path d="M115.617 23.247C115.617 24.8894 116.956 26.2208 118.607 26.2208C120.259 26.2208 121.598 24.8894 121.598 23.247C121.598 21.6046 120.259 20.2732 118.607 20.2732C116.956 20.2732 115.617 21.6046 115.617 23.247Z" fill="#9871F5"/>
<path d="M115.617 44.0199C115.617 45.6623 116.956 46.9937 118.607 46.9937C120.259 46.9937 121.598 45.6623 121.598 44.0199C121.598 42.3776 120.259 41.0461 118.607 41.0461C116.956 41.0461 115.617 42.3776 115.617 44.0199Z" fill="#9871F5"/>
<path d="M115.617 64.7744C115.617 66.4168 116.956 67.7482 118.607 67.7482C120.259 67.7482 121.598 66.4168 121.598 64.7744C121.598 63.1321 120.259 61.8007 118.607 61.8007C116.956 61.8007 115.617 63.1321 115.617 64.7744Z" fill="#9871F5"/>
<path d="M115.617 85.5447C115.617 87.1871 116.956 88.5185 118.607 88.5185C120.259 88.5185 121.598 87.1871 121.598 85.5447C121.598 83.9023 120.259 82.5709 118.607 82.5709C116.956 82.5709 115.617 83.9023 115.617 85.5447Z" fill="#9871F5"/>
<path d="M115.617 106.301C115.617 107.943 116.956 109.275 118.607 109.275C120.259 109.275 121.598 107.943 121.598 106.301C121.598 104.659 120.259 103.327 118.607 103.327C116.956 103.327 115.617 104.659 115.617 106.301Z" fill="#9871F5"/>
<path d="M115.617 127.071C115.617 128.714 116.956 130.045 118.607 130.045C120.259 130.045 121.598 128.714 121.598 127.071C121.598 125.429 120.259 124.098 118.607 124.098C116.956 124.098 115.617 125.429 115.617 127.071Z" fill="#9871F5"/>
<path d="M94.7442 23.247C94.7442 24.8894 96.083 26.2208 97.7346 26.2208C99.3862 26.2208 100.725 24.8894 100.725 23.247C100.725 21.6046 99.3862 20.2732 97.7346 20.2732C96.083 20.2732 94.7442 21.6046 94.7442 23.247Z" fill="#9871F5"/>
<path d="M94.7442 44.0199C94.7442 45.6623 96.083 46.9937 97.7346 46.9937C99.3862 46.9937 100.725 45.6623 100.725 44.0199C100.725 42.3776 99.3862 41.0461 97.7346 41.0461C96.083 41.0461 94.7442 42.3776 94.7442 44.0199Z" fill="#9871F5"/>
<path d="M94.7442 64.7744C94.7442 66.4168 96.083 67.7482 97.7346 67.7482C99.3862 67.7482 100.725 66.4168 100.725 64.7744C100.725 63.1321 99.3862 61.8007 97.7346 61.8007C96.083 61.8007 94.7442 63.1321 94.7442 64.7744Z" fill="#9871F5"/>
<path d="M94.7442 85.5447C94.7442 87.1871 96.083 88.5185 97.7346 88.5185C99.3862 88.5185 100.725 87.1871 100.725 85.5447C100.725 83.9023 99.3862 82.5709 97.7346 82.5709C96.083 82.5709 94.7442 83.9023 94.7442 85.5447Z" fill="#9871F5"/>
<path d="M94.7442 106.301C94.7442 107.943 96.083 109.275 97.7346 109.275C99.3862 109.275 100.725 107.943 100.725 106.301C100.725 104.659 99.3862 103.327 97.7346 103.327C96.083 103.327 94.7442 104.659 94.7442 106.301Z" fill="#9871F5"/>
<path d="M94.7442 127.071C94.7442 128.714 96.083 130.045 97.7346 130.045C99.3862 130.045 100.725 128.714 100.725 127.071C100.725 125.429 99.3862 124.098 97.7346 124.098C96.083 124.098 94.7442 125.429 94.7442 127.071Z" fill="#9871F5"/>
<path d="M497.944 477.706C497.944 479.348 499.283 480.679 500.935 480.679C502.586 480.679 503.925 479.348 503.925 477.706C503.925 476.063 502.586 474.732 500.935 474.732C499.283 474.732 497.944 476.063 497.944 477.706Z" fill="#9871F5"/>
<path d="M497.945 498.46C497.945 500.103 499.284 501.434 500.936 501.434C502.587 501.434 503.926 500.103 503.926 498.46C503.926 496.818 502.587 495.487 500.936 495.487C499.284 495.487 497.945 496.818 497.945 498.46Z" fill="#9871F5"/>
<path d="M497.945 519.23C497.945 520.872 499.284 522.204 500.936 522.204C502.587 522.204 503.926 520.872 503.926 519.23C503.926 517.588 502.587 516.256 500.936 516.256C499.284 516.256 497.945 517.588 497.945 519.23Z" fill="#9871F5"/>
<path d="M477.056 477.703C477.056 479.346 478.395 480.677 480.047 480.677C481.698 480.677 483.037 479.346 483.037 477.703C483.037 476.061 481.698 474.73 480.047 474.73C478.395 474.73 477.056 476.061 477.056 477.703Z" fill="#9871F5"/>
<path d="M477.056 498.46C477.056 500.103 478.395 501.434 480.047 501.434C481.698 501.434 483.037 500.103 483.037 498.46C483.037 496.818 481.698 495.487 480.047 495.487C478.395 495.487 477.056 496.818 477.056 498.46Z" fill="#9871F5"/>
<path d="M477.056 519.228C477.056 520.871 478.395 522.202 480.047 522.202C481.698 522.202 483.037 520.871 483.037 519.228C483.037 517.586 481.698 516.255 480.047 516.255C478.395 516.255 477.056 517.586 477.056 519.228Z" fill="#9871F5"/>
<path d="M571.654 111.974C571.654 113.617 572.992 114.948 574.644 114.948C576.296 114.948 577.634 113.617 577.634 111.974C577.634 110.332 576.296 109.001 574.644 109.001C572.992 109.001 571.654 110.332 571.654 111.974Z" fill="#9871F5"/>
<path d="M571.654 132.728C571.654 134.37 572.993 135.702 574.644 135.702C576.296 135.702 577.635 134.37 577.635 132.728C577.635 131.086 576.296 129.754 574.644 129.754C572.993 129.754 571.654 131.086 571.654 132.728Z" fill="#9871F5"/>
<path d="M571.654 153.5C571.654 155.143 572.993 156.474 574.644 156.474C576.296 156.474 577.635 155.143 577.635 153.5C577.635 151.858 576.296 150.527 574.644 150.527C572.993 150.527 571.654 151.858 571.654 153.5Z" fill="#9871F5"/>
<path d="M550.765 111.974C550.765 113.616 552.104 114.948 553.755 114.948C555.407 114.948 556.746 113.616 556.746 111.974C556.746 110.331 555.407 109 553.755 109C552.104 109 550.765 110.331 550.765 111.974Z" fill="#9871F5"/>
<path d="M550.765 132.73C550.765 134.372 552.104 135.704 553.755 135.704C555.407 135.704 556.746 134.372 556.746 132.73C556.746 131.088 555.407 129.756 553.755 129.756C552.104 129.756 550.765 131.088 550.765 132.73Z" fill="#9871F5"/>
<path d="M550.765 153.5C550.765 155.143 552.104 156.474 553.755 156.474C555.407 156.474 556.746 155.143 556.746 153.5C556.746 151.858 555.407 150.526 553.755 150.526C552.104 150.526 550.765 151.858 550.765 153.5Z" fill="#9871F5"/>
<path d="M164.866 662.983C164.866 664.626 166.205 665.957 167.857 665.957C169.508 665.957 170.847 664.626 170.847 662.983C170.847 661.341 169.508 660.009 167.857 660.009C166.205 660.009 164.866 661.341 164.866 662.983Z" fill="#9871F5"/>
<path d="M143.977 662.983C143.977 664.626 145.316 665.957 146.968 665.957C148.619 665.957 149.958 664.626 149.958 662.983C149.958 661.341 148.619 660.009 146.968 660.009C145.316 660.009 143.977 661.341 143.977 662.983Z" fill="#9871F5"/>
<path d="M123.104 662.983C123.104 664.626 124.443 665.957 126.095 665.957C127.746 665.957 129.085 664.626 129.085 662.983C129.085 661.341 127.746 660.009 126.095 660.009C124.443 660.009 123.104 661.341 123.104 662.983Z" fill="#9871F5"/>
<path d="M102.215 662.983C102.215 664.626 103.554 665.957 105.206 665.957C106.857 665.957 108.196 664.626 108.196 662.983C108.196 661.341 106.857 660.009 105.206 660.009C103.554 660.009 102.215 661.341 102.215 662.983Z" fill="#9871F5"/>
<path d="M81.3421 662.983C81.3421 664.626 82.6809 665.957 84.3325 665.957C85.9841 665.957 87.323 664.626 87.323 662.983C87.323 661.341 85.9841 660.009 84.3325 660.009C82.681 660.009 81.3421 661.341 81.3421 662.983Z" fill="#9871F5"/>
<path d="M60.453 662.983C60.453 664.626 61.7919 665.957 63.4435 665.957C65.0951 665.957 66.4339 664.626 66.4339 662.983C66.4339 661.341 65.0951 660.009 63.4435 660.009C61.7919 660.009 60.453 661.341 60.453 662.983Z" fill="#9871F5"/>
<path d="M39.5797 662.983C39.5797 664.626 40.9186 665.957 42.5701 665.957C44.2217 665.957 45.5606 664.626 45.5606 662.983C45.5606 661.341 44.2217 660.009 42.5701 660.009C40.9186 660.009 39.5797 661.341 39.5797 662.983Z" fill="#9871F5"/>
<path d="M164.866 642.212C164.866 643.854 166.205 645.186 167.857 645.186C169.508 645.186 170.847 643.854 170.847 642.212C170.847 640.57 169.508 639.238 167.857 639.238C166.205 639.238 164.866 640.57 164.866 642.212Z" fill="#9871F5"/>
<path d="M143.977 642.212C143.977 643.854 145.316 645.186 146.968 645.186C148.619 645.186 149.958 643.854 149.958 642.212C149.958 640.57 148.619 639.238 146.968 639.238C145.316 639.238 143.977 640.57 143.977 642.212Z" fill="#9871F5"/>
<path d="M123.104 642.212C123.104 643.854 124.443 645.186 126.095 645.186C127.746 645.186 129.085 643.854 129.085 642.212C129.085 640.57 127.746 639.238 126.095 639.238C124.443 639.238 123.104 640.57 123.104 642.212Z" fill="#9871F5"/>
<path d="M102.215 642.212C102.215 643.854 103.554 645.186 105.206 645.186C106.857 645.186 108.196 643.854 108.196 642.212C108.196 640.57 106.857 639.238 105.206 639.238C103.554 639.238 102.215 640.57 102.215 642.212Z" fill="#9871F5"/>
<path d="M81.3421 642.212C81.3421 643.854 82.6809 645.186 84.3325 645.186C85.9841 645.186 87.323 643.854 87.323 642.212C87.323 640.57 85.9841 639.238 84.3325 639.238C82.6809 639.238 81.3421 640.57 81.3421 642.212Z" fill="#9871F5"/>
<path d="M60.453 642.212C60.453 643.854 61.7919 645.186 63.4434 645.186C65.095 645.186 66.4339 643.854 66.4339 642.212C66.4339 640.57 65.095 639.238 63.4434 639.238C61.7919 639.238 60.453 640.57 60.453 642.212Z" fill="#9871F5"/>
<path d="M39.5797 642.212C39.5797 643.854 40.9186 645.186 42.5701 645.186C44.2217 645.186 45.5606 643.854 45.5606 642.212C45.5606 640.57 44.2217 639.238 42.5701 639.238C40.9186 639.238 39.5797 640.57 39.5797 642.212Z" fill="#9871F5"/>
<path d="M164.866 621.456C164.866 623.098 166.205 624.43 167.857 624.43C169.508 624.43 170.847 623.098 170.847 621.456C170.847 619.814 169.508 618.482 167.857 618.482C166.205 618.482 164.866 619.814 164.866 621.456Z" fill="#9871F5"/>
<path d="M143.977 621.456C143.977 623.098 145.316 624.43 146.968 624.43C148.619 624.43 149.958 623.098 149.958 621.456C149.958 619.814 148.619 618.482 146.968 618.482C145.316 618.482 143.977 619.814 143.977 621.456Z" fill="#9871F5"/>
<path d="M123.104 621.456C123.104 623.098 124.443 624.43 126.094 624.43C127.746 624.43 129.085 623.098 129.085 621.456C129.085 619.814 127.746 618.482 126.094 618.482C124.443 618.482 123.104 619.814 123.104 621.456Z" fill="#9871F5"/>
<path d="M102.215 621.456C102.215 623.098 103.554 624.43 105.206 624.43C106.857 624.43 108.196 623.098 108.196 621.456C108.196 619.814 106.857 618.482 105.206 618.482C103.554 618.482 102.215 619.814 102.215 621.456Z" fill="#9871F5"/>
<path d="M81.3421 621.456C81.3421 623.098 82.6809 624.43 84.3325 624.43C85.9841 624.43 87.323 623.098 87.323 621.456C87.323 619.814 85.9841 618.482 84.3325 618.482C82.6809 618.482 81.3421 619.814 81.3421 621.456Z" fill="#9871F5"/>
<path d="M60.453 621.456C60.453 623.098 61.7919 624.43 63.4434 624.43C65.095 624.43 66.4339 623.098 66.4339 621.456C66.4339 619.814 65.095 618.482 63.4434 618.482C61.7919 618.482 60.453 619.814 60.453 621.456Z" fill="#9871F5"/>
<path d="M39.5797 621.456C39.5797 623.098 40.9186 624.43 42.5701 624.43C44.2217 624.43 45.5606 623.098 45.5606 621.456C45.5606 619.814 44.2217 618.482 42.5701 618.482C40.9186 618.482 39.5797 619.814 39.5797 621.456Z" fill="#9871F5"/>
<path d="M164.864 600.686C164.864 602.328 166.203 603.66 167.855 603.66C169.506 603.66 170.845 602.328 170.845 600.686C170.845 599.043 169.506 597.712 167.855 597.712C166.203 597.712 164.864 599.043 164.864 600.686Z" fill="#9871F5"/>
<path d="M143.977 600.685C143.977 602.328 145.316 603.659 146.968 603.659C148.619 603.659 149.958 602.328 149.958 600.685C149.958 599.043 148.619 597.712 146.968 597.712C145.316 597.712 143.977 599.043 143.977 600.685Z" fill="#9871F5"/>
<path d="M123.104 600.685C123.104 602.328 124.443 603.659 126.094 603.659C127.746 603.659 129.085 602.328 129.085 600.685C129.085 599.043 127.746 597.712 126.094 597.712C124.443 597.712 123.104 599.043 123.104 600.685Z" fill="#9871F5"/>
<path d="M102.215 600.685C102.215 602.328 103.554 603.659 105.206 603.659C106.857 603.659 108.196 602.328 108.196 600.685C108.196 599.043 106.857 597.712 105.206 597.712C103.554 597.712 102.215 599.043 102.215 600.685Z" fill="#9871F5"/>
<path d="M81.3421 600.685C81.3421 602.328 82.6809 603.659 84.3325 603.659C85.9841 603.659 87.323 602.328 87.323 600.685C87.323 599.043 85.9841 597.712 84.3325 597.712C82.6809 597.712 81.3421 599.043 81.3421 600.685Z" fill="#9871F5"/>
<path d="M60.453 600.685C60.453 602.328 61.7919 603.659 63.4434 603.659C65.095 603.659 66.4339 602.328 66.4339 600.685C66.4339 599.043 65.095 597.712 63.4434 597.712C61.7919 597.712 60.453 599.043 60.453 600.685Z" fill="#9871F5"/>
<path d="M39.5797 600.685C39.5797 602.328 40.9186 603.659 42.5701 603.659C44.2217 603.659 45.5606 602.328 45.5606 600.685C45.5606 599.043 44.2217 597.712 42.5701 597.712C40.9186 597.712 39.5797 599.043 39.5797 600.685Z" fill="#9871F5"/>
</svg>
